<svg xmlns="http://www.w3.org/2000/svg" xmlns:svg="http://www.w3.org/2000/svg" id="svg3336" width="2400" height="1500" version="1.1" viewBox="0 0 2400 1500"><metadata id="metadata3342"/><g id="layer6"><g id="g4431" style="stroke:#0a405c;stroke-opacity:1"><g id="g4462" style="fill:none;stroke:#000;stroke-opacity:1"><g id="g4412" transform="translate(2.58185,0)" style="stroke:#000;stroke-opacity:1;fill:none"><g id="g4390" style="stroke:#000;stroke-opacity:1;fill:none"><path style="fill:none;fill-rule:evenodd;stroke:#000;stroke-width:10;stroke-linecap:round;stroke-linejoin:miter;stroke-miterlimit:4;stroke-dasharray:none;stroke-opacity:1" id="path4384" d="m 1015.3034,1036.7062 c 0,0 -175.15151,-2.6121 -424.18694,47.305 -158.12548,31.6949 -196.82389,53.7325 -196.82389,53.7325"/><path id="path4386" d="m 1016.1877,1062.7152 c 0,0 -164.49561,15.0454 -392.91991,85.6178 -145.03842,44.8101 -179.08001,68.8723 -179.08001,68.8723" style="fill:none;fill-rule:evenodd;stroke:#000;stroke-width:9.32723141;stroke-linecap:round;stroke-linejoin:miter;stroke-miterlimit:4;stroke-dasharray:none;stroke-opacity:1"/><path style="fill:none;fill-rule:evenodd;stroke:#000;stroke-width:7.27907372;stroke-linecap:round;stroke-linejoin:miter;stroke-miterlimit:4;stroke-dasharray:none;stroke-opacity:1" id="path4388" d="m 1018.9331,1086.4115 c 0,0 -123.0517,47.4796 -282.15074,149.3157 -101.02023,64.6612 -121.52011,89.6267 -121.52011,89.6267"/></g><g id="g4395" transform="matrix(-1,0,0,1,2371.8516,0)" style="stroke:#000;stroke-opacity:1;fill:none"><path id="path4397" d="m 1015.3034,1036.7062 c 0,0 -175.15151,-2.6121 -424.18694,47.305 -158.12548,31.6949 -196.82389,53.7325 -196.82389,53.7325" style="fill:none;fill-rule:evenodd;stroke:#000;stroke-width:10;stroke-linecap:round;stroke-linejoin:miter;stroke-miterlimit:4;stroke-dasharray:none;stroke-opacity:1"/><path style="fill:none;fill-rule:evenodd;stroke:#000;stroke-width:9.32723141;stroke-linecap:round;stroke-linejoin:miter;stroke-miterlimit:4;stroke-dasharray:none;stroke-opacity:1" id="path4399" d="m 1016.1877,1062.7152 c 0,0 -164.49561,15.0454 -392.91991,85.6178 -145.03842,44.8101 -179.08001,68.8723 -179.08001,68.8723"/><path id="path4401" d="m 1018.9331,1086.4115 c 0,0 -123.0517,47.4796 -282.15074,149.3157 -101.02023,64.6612 -121.52011,89.6267 -121.52011,89.6267" style="fill:none;fill-rule:evenodd;stroke:#000;stroke-width:7.27907372;stroke-linecap:round;stroke-linejoin:miter;stroke-miterlimit:4;stroke-dasharray:none;stroke-opacity:1"/></g></g><g id="g4371" transform="translate(1.8745456,0)" style="stroke:#000;stroke-opacity:1;fill:none"><path style="fill:none;fill-rule:evenodd;stroke:#000;stroke-width:80;stroke-linecap:butt;stroke-linejoin:round;stroke-miterlimit:40;stroke-dasharray:none;stroke-opacity:1" id="path4300" d="m 1647.1177,817.16962 c 0,0 -130.7606,393.33908 -376.1837,493.59858 l -83.3009,0 M 726.14851,817.16961 c 0,0 130.76056,393.33909 376.18369,493.59859 l 85.3009,0"/></g></g></g><g id="g4451" style="stroke:none;stroke-opacity:.94117647;fill:#000;fill-opacity:1"><g id="g4375" transform="translate(0.874535,0)" style="stroke:none;stroke-opacity:.94117647;fill:#000;fill-opacity:1"><path style="fill:#000;fill-opacity:1;fill-rule:evenodd;stroke:none;stroke-width:1px;stroke-linecap:butt;stroke-linejoin:miter;stroke-opacity:.94117647" id="path4151" d="m 871.67131,486.02734 c -103.05706,-0.38 -171.39648,59.14649 -171.39648,59.14649 0,0 -69.79028,52.43724 -137.14844,131.20508 -47.94793,56.06975 -87.12853,113.79395 -108.88476,146.74023 25.49252,11.4965 55.62238,27.63024 144,39.27539 72.92905,9.60955 159.73889,8.3713 231.23242,-2.65625 96.65017,-14.90784 213.63635,-73.44648 225.00785,-206.2168 7.3782,-86.14573 -61.75982,-148.12234 -129.57816,-161.97265 -18.5758,-3.79367 -36.36854,-5.4593 -53.23243,-5.52149 z m 17.13672,72.0625 a 91.238609,91.881134 0 0 1 11.19141,0.39063 91.238609,91.881134 0 0 1 82.38867,95.86719 91.238609,91.881134 0 0 1 -91.13281,87.47265 l -17.41016,-1.6875 a 91.238609,91.881134 0 0 1 -72.88476,-103.3789 91.238609,91.881134 0 0 1 87.84765,-78.66407 z"/><path id="path4323" d="m 1503.5949,486.02734 c 103.057,-0.38 171.3965,59.14649 171.3965,59.14649 0,0 69.7902,52.43724 137.1484,131.20508 47.9479,56.06975 87.1285,113.79395 108.8848,146.74023 -25.4926,11.4965 -55.6224,27.63024 -144.0001,39.27539 -72.929,9.60955 -159.7388,8.3713 -231.2324,-2.65625 -96.6501,-14.90784 -213.6363,-73.44648 -225.0078,-206.2168 -7.3782,-86.14573 61.7598,-148.12234 129.5781,-161.97265 18.5758,-3.79367 36.3686,-5.4593 53.2325,-5.52149 z m -17.1367,72.0625 a 91.238609,91.881134 0 0 0 -11.1915,0.39063 91.238609,91.881134 0 0 0 -82.3886,95.86719 91.238609,91.881134 0 0 0 91.1328,87.47265 l 17.4101,-1.6875 a 91.238609,91.881134 0 0 0 72.8848,-103.3789 91.238609,91.881134 0 0 0 -87.8476,-78.66407 z" style="fill:#000;fill-opacity:1;fill-rule:evenodd;stroke:none;stroke-width:1px;stroke-linecap:butt;stroke-linejoin:miter;stroke-opacity:.94117647"/></g><g id="g4379" transform="translate(0.87454148,0)" style="display:inline;stroke:none;stroke-opacity:.94117647;fill:#000;fill-opacity:1"><path id="path4328" d="m 1881.7832,506.69903 c -27.5208,5.18553 -40.6509,-11.14108 -53.4613,-23.08379 -70.9505,-66.14469 -177.7949,-177.89211 -214.6263,-214.72354 -15.3523,-15.35229 -13.5286,-22.89335 -14.7703,-33.43978 -6.7167,-57.04558 202.3362,-117.35022 336.2267,-133.26019 56.2545,-6.684627 85.0691,-8.144373 105.9242,11.89278 21.8993,21.04031 7.8679,57.45085 -5.2374,109.57707 -28.6458,113.93886 -96.9854,272.28418 -154.0556,283.03745 z" style="display:inline;fill:#000;fill-opacity:1;fill-rule:evenodd;stroke:none;stroke-width:1px;stroke-linecap:butt;stroke-linejoin:miter;stroke-opacity:.94117647"/><path style="fill:#000;fill-opacity:1;fill-rule:evenodd;stroke:none;stroke-width:1px;stroke-linecap:butt;stroke-linejoin:miter;stroke-opacity:.94117647" id="path3349" d="m 493.48303,506.69903 c 27.52085,5.18553 40.65091,-11.14108 53.46133,-23.08379 70.95046,-66.14469 177.79484,-177.89211 214.62627,-214.72354 15.35229,-15.35229 13.52856,-22.89335 14.77033,-33.43978 6.71671,-57.04558 -202.33619,-117.35022 -336.22669,-133.26019 -56.25456,-6.684627 -85.06912,-8.144373 -105.92428,11.89278 -21.89927,21.04031 -7.86785,57.45085 5.23741,109.57707 28.64582,113.93886 96.98538,272.28418 154.05563,283.03745 z"/></g><path id="path4159" d="m 1034.4848,248.1344 c 4.7092,8.93347 14.7173,12.14978 23.4602,15.55605 11.9084,4.63955 66.8194,4.63955 95.0317,32.85185 0,86.63754 0,275.0686 0,275.0686 0,0 0,32.69798 36.5697,32.69798 38.3973,0 38.3945,-32.69798 38.3945,-32.69798 0,0 0,-183.25454 0,-275.0686 35.8236,-28.73133 69.2766,-29.02095 91.8474,-35.22472 9.8183,-2.69863 18.521,-3.54596 22.7422,-13.18318 9e-4,-7.87533 0,-63.0603 -152.9841,-63.0603 -155.0616,0 -155.0616,52.67881 -155.0616,63.0603 z" style="fill:#000;fill-opacity:1;fill-rule:evenodd;stroke:none;stroke-width:1px;stroke-linecap:butt;stroke-linejoin:miter;stroke-opacity:.94117647"/><path id="path4153" d="m 1187.7734,1140.4688 c -32.788,0 -92.4116,-68.884 -92.4116,-124.9758 0,-46.05191 52.2106,-61.97187 91.9988,-61.97187 49.9417,0 94.2929,21.01442 94.2929,61.93527 0,48.2974 -56.9286,125.0124 -93.8801,125.0124 z" style="fill:#000;fill-opacity:1;fill-rule:evenodd;stroke:none;stroke-width:1px;stroke-linecap:butt;stroke-linejoin:miter;stroke-opacity:.94117647"/></g></g></svg>